<svg width="25" height="25" viewBox="0 0 25 25" fill="none" xmlns="http://www.w3.org/2000/svg">
<path d="M19.4747 12.5127H16.0547C15.6447 12.5127 15.3047 12.1727 15.3047 11.7627V4.7727C15.3047 4.0327 15.5947 3.3427 16.1147 2.8227C16.6347 2.3027 17.3247 2.0127 18.0647 2.0127H18.0747C19.3247 2.0227 20.5047 2.5127 21.4047 3.4027C22.3047 4.3127 22.7947 5.5127 22.7947 6.7627V9.1827C22.8047 11.1727 21.4647 12.5127 19.4747 12.5127ZM16.8047 11.0127H19.4747C20.6347 11.0127 21.3047 10.3427 21.3047 9.1827V6.7627C21.3047 5.9027 20.9647 5.0827 20.3547 4.4627C19.7447 3.8627 18.9347 3.5227 18.0747 3.5127C18.0747 3.5127 18.0747 3.5127 18.0647 3.5127C17.7347 3.5127 17.4147 3.6427 17.1747 3.8827C16.9347 4.1227 16.8047 4.4327 16.8047 4.7727V11.0127Z" fill="white"/>
<path d="M9.05444 24.0927C8.58444 24.0927 8.14445 23.9127 7.81445 23.5727L6.15442 21.9027C6.06442 21.8127 5.92446 21.8027 5.82446 21.8827L4.11444 23.1627C3.58444 23.5627 2.88442 23.6327 2.28442 23.3327C1.68442 23.0327 1.31445 22.4327 1.31445 21.7627V6.7627C1.31445 3.7427 3.04445 2.0127 6.06445 2.0127H18.0645C18.4745 2.0127 18.8145 2.3527 18.8145 2.7627C18.8145 3.1727 18.4745 3.5127 18.0645 3.5127C17.3745 3.5127 16.8145 4.0727 16.8145 4.7627V21.7627C16.8145 22.4327 16.4444 23.0327 15.8444 23.3327C15.2544 23.6327 14.5445 23.5627 14.0145 23.1627L12.3044 21.8827C12.2044 21.8027 12.0644 21.8227 11.9844 21.9027L10.3044 23.5827C9.96444 23.9127 9.52444 24.0927 9.05444 24.0927ZM5.96442 20.3327C6.42442 20.3327 6.87442 20.5027 7.21442 20.8527L8.87445 22.5227C8.93445 22.5827 9.01444 22.5927 9.05444 22.5927C9.09444 22.5927 9.17444 22.5827 9.23444 22.5227L10.9144 20.8427C11.5344 20.2227 12.5145 20.1627 13.2045 20.6927L14.9044 21.9627C15.0144 22.0427 15.1144 22.0127 15.1644 21.9827C15.2144 21.9527 15.3044 21.8927 15.3044 21.7627V4.7627C15.3044 4.3127 15.4144 3.8827 15.6044 3.5127H6.05444C3.83444 3.5127 2.80444 4.5427 2.80444 6.7627V21.7627C2.80444 21.9027 2.89446 21.9627 2.94446 21.9927C3.00446 22.0227 3.10447 22.0427 3.20447 21.9627L4.91443 20.6827C5.22443 20.4527 5.59442 20.3327 5.96442 20.3327Z" fill="white"/>
</svg>
