<svg width="40" height="41" viewBox="0 0 40 41" fill="none" xmlns="http://www.w3.org/2000/svg">
<path d="M11 32.1138L9.5 33.5951M29 32.1138L30.5 33.5951M6.5 20.2629V21.7443C6.5 26.6327 6.5 29.077 8.0375 30.5954C9.575 32.1138 12.05 32.1138 17 32.1138H23C27.95 32.1138 30.425 32.1138 31.9625 30.5954C33.5 29.077 33.5 26.6327 33.5 21.7443V20.2629M5 20.2629H35M8 20.2629V10.6681C7.99947 9.76921 8.32701 8.90023 8.92259 8.22045C9.51816 7.54068 10.3419 7.09566 11.2427 6.96697C12.1436 6.83829 13.0612 7.03455 13.8274 7.51979C14.5936 8.00503 15.1571 8.74674 15.4145 9.60895L15.5 9.89337M14 11.3747L17.75 8.41201" stroke="white" stroke-linecap="round" stroke-linejoin="round"/>
</svg>
