<svg width="40" height="41" viewBox="0 0 40 41" fill="none" xmlns="http://www.w3.org/2000/svg">
<path d="M5 31.9285V23.7619C5.00361 22.5253 5.49104 21.3405 6.35581 20.4661C7.22058 19.5917 8.39242 19.0989 9.61538 19.0952H30.3846C31.6076 19.0989 32.7794 19.5917 33.6442 20.4661C34.509 21.3405 34.9964 22.5253 35 23.7619V31.9285M29.2308 19.0952H8.46154V11.5119C8.46382 10.739 8.76847 9.99852 9.30894 9.45204C9.84942 8.90555 10.5818 8.59752 11.3462 8.59521H28.6538C29.4182 8.59752 30.1506 8.90555 30.6911 9.45204C31.2315 9.99852 31.5362 10.739 31.5385 11.5119V19.0952H29.2308Z" stroke="white" stroke-width="0.933333" stroke-linecap="round" stroke-linejoin="round"/>
<path d="M5 31.9285V31.3333C5.00133 30.8601 5.18411 30.4067 5.5084 30.0721C5.8327 29.7375 6.27215 29.5489 6.73077 29.5476H33.2692C33.7278 29.5489 34.1673 29.7375 34.4916 30.0721C34.8159 30.4067 34.9987 30.8601 35 31.3333V31.9285M9.61538 18.8333V17.6428C9.6171 17.0119 9.86078 16.4073 10.2932 15.9612C10.7256 15.515 11.3116 15.2636 11.9231 15.2618H17.6923C18.3038 15.2636 18.8898 15.515 19.3222 15.9612C19.7546 16.4073 19.9983 17.0119 20 17.6428M20 17.6428V18.8333M20 17.6428C20.0017 17.0119 20.2454 16.4073 20.6778 15.9612C21.1102 15.515 21.6962 15.2636 22.3077 15.2618H28.0769C28.6884 15.2636 29.2744 15.515 29.7068 15.9612C30.1392 16.4073 30.3829 17.0119 30.3846 17.6428V18.8333" stroke="white" stroke-width="0.933333" stroke-linecap="round" stroke-linejoin="round"/>
</svg>
