<svg width="25" height="25" viewBox="0 0 25 25" fill="none" xmlns="http://www.w3.org/2000/svg">
<path d="M12.0547 10.0127C11.6447 10.0127 11.3047 9.6727 11.3047 9.2627V3.7627C11.3047 3.3527 11.6447 3.0127 12.0547 3.0127C12.4647 3.0127 12.8047 3.3527 12.8047 3.7627V9.2627C12.8047 9.6727 12.4647 10.0127 12.0547 10.0127Z" fill="white"/>
<path d="M12.0547 22.5127C11.6447 22.5127 11.3047 22.1727 11.3047 21.7627V16.2627C11.3047 15.8527 11.6447 15.5127 12.0547 15.5127C12.4647 15.5127 12.8047 15.8527 12.8047 16.2627V21.7627C12.8047 22.1727 12.4647 22.5127 12.0547 22.5127Z" fill="white"/>
<path d="M14.0547 4.5127H10.0547C9.64469 4.5127 9.30469 4.1727 9.30469 3.7627C9.30469 3.3527 9.64469 3.0127 10.0547 3.0127H14.0547C14.4647 3.0127 14.8047 3.3527 14.8047 3.7627C14.8047 4.1727 14.4647 4.5127 14.0547 4.5127Z" fill="white"/>
<path d="M14.0547 22.5127H10.0547C9.64469 22.5127 9.30469 22.1727 9.30469 21.7627C9.30469 21.3527 9.64469 21.0127 10.0547 21.0127H14.0547C14.4647 21.0127 14.8047 21.3527 14.8047 21.7627C14.8047 22.1727 14.4647 22.5127 14.0547 22.5127Z" fill="white"/>
<path d="M9.02482 11.7626C8.89482 11.7626 8.76482 11.7326 8.65482 11.6626L3.89482 8.91261C3.53482 8.70261 3.41482 8.24262 3.62482 7.89262C3.83482 7.53262 4.29482 7.41262 4.64482 7.62262L9.40482 10.3726C9.76482 10.5826 9.88482 11.0426 9.67482 11.3926C9.53482 11.6326 9.28482 11.7626 9.02482 11.7626Z" fill="white"/>
<path d="M19.8446 18.0126C19.7146 18.0126 19.5846 17.9826 19.4746 17.9126L14.7146 15.1626C14.3546 14.9526 14.2346 14.4926 14.4446 14.1426C14.6546 13.7826 15.1146 13.6626 15.4646 13.8726L20.2246 16.6226C20.5846 16.8326 20.7046 17.2926 20.4946 17.6426C20.3546 17.8826 20.1046 18.0126 19.8446 18.0126Z" fill="white"/>
<path d="M3.26482 10.7426C3.13482 10.7426 3.00482 10.7126 2.89482 10.6426C2.53482 10.4326 2.41482 9.97264 2.62482 9.62264L4.62482 6.16263C4.83482 5.80263 5.29482 5.68264 5.64482 5.89264C6.00482 6.10264 6.12482 6.56263 5.91482 6.91263L3.91482 10.3726C3.77482 10.6126 3.51482 10.7426 3.26482 10.7426Z" fill="white"/>
<path d="M18.8449 19.7426C18.7149 19.7426 18.5849 19.7126 18.4749 19.6426C18.1149 19.4326 17.9949 18.9726 18.2049 18.6226L20.2049 15.1626C20.4149 14.8026 20.8749 14.6826 21.2249 14.8926C21.5849 15.1026 21.7049 15.5626 21.4949 15.9126L19.4949 19.3726C19.3649 19.6126 19.1049 19.7426 18.8449 19.7426Z" fill="white"/>
<path d="M12.0547 17.0127C10.5447 17.0127 9.13469 16.2027 8.37469 14.8927C7.99469 14.2327 7.80469 13.5227 7.80469 12.7627C7.80469 12.0027 7.99469 11.2927 8.37469 10.6427C9.13469 9.33272 10.5447 8.52271 12.0547 8.52271C13.5647 8.52271 14.9747 9.33272 15.7347 10.6427C16.1147 11.3027 16.3047 12.0127 16.3047 12.7727C16.3047 13.5327 16.1147 14.2427 15.7347 14.8927C14.9747 16.2027 13.5647 17.0127 12.0547 17.0127ZM12.0547 10.0127C11.0747 10.0127 10.1647 10.5427 9.67469 11.3927C9.43469 11.8127 9.30469 12.2827 9.30469 12.7627C9.30469 13.2427 9.42469 13.7127 9.67469 14.1427C10.1647 14.9927 11.0747 15.5227 12.0547 15.5227C13.0347 15.5227 13.9447 14.9927 14.4347 14.1427C14.6747 13.7227 14.8047 13.2527 14.8047 12.7727C14.8047 12.2927 14.6847 11.8227 14.4347 11.3927C13.9447 10.5427 13.0347 10.0127 12.0547 10.0127Z" fill="white"/>
<path d="M15.0846 11.7629C14.8246 11.7629 14.5746 11.6328 14.4346 11.3828C14.2246 11.0228 14.3546 10.5629 14.7046 10.3629L19.4646 7.61286C19.8246 7.40286 20.2846 7.53285 20.4846 7.88285C20.6946 8.24285 20.5646 8.70285 20.2146 8.90285L15.4546 11.6529C15.3446 11.7329 15.2146 11.7629 15.0846 11.7629Z" fill="white"/>
<path d="M4.26481 18.0129C4.00481 18.0129 3.75481 17.8828 3.61481 17.6328C3.40481 17.2728 3.53481 16.8129 3.88481 16.6129L8.64481 13.8629C9.00481 13.6529 9.46481 13.7828 9.66481 14.1328C9.87481 14.4928 9.74481 14.9529 9.39481 15.1529L4.63481 17.9029C4.52481 17.9829 4.39481 18.0129 4.26481 18.0129Z" fill="white"/>
<path d="M20.8449 10.7426C20.5849 10.7426 20.3349 10.6126 20.1949 10.3626L18.1949 6.90264C17.9849 6.54264 18.1149 6.08263 18.4649 5.88263C18.8249 5.67263 19.2849 5.80264 19.4849 6.15264L21.4849 9.61264C21.6949 9.97264 21.5649 10.4326 21.2149 10.6326C21.1049 10.7126 20.9749 10.7426 20.8449 10.7426Z" fill="white"/>
<path d="M5.26481 19.7426C5.00481 19.7426 4.75481 19.6126 4.61481 19.3626L2.61481 15.9026C2.40481 15.5426 2.53481 15.0826 2.88481 14.8826C3.24481 14.6726 3.70481 14.8026 3.90481 15.1526L5.90481 18.6126C6.11481 18.9726 5.98481 19.4326 5.63481 19.6326C5.51481 19.7126 5.38481 19.7426 5.26481 19.7426Z" fill="white"/>
</svg>
