<svg width="25" height="25" viewBox="0 0 25 25" fill="none" xmlns="http://www.w3.org/2000/svg">
<path d="M15.0547 23.5127H9.05469C6.30469 23.5127 4.30469 21.5127 4.30469 18.7627V6.7627C4.30469 4.0127 6.30469 2.0127 9.05469 2.0127H15.0547C17.8047 2.0127 19.8047 4.0127 19.8047 6.7627V18.7627C19.8047 21.5127 17.8047 23.5127 15.0547 23.5127ZM9.05469 3.5127C6.80469 3.5127 5.80469 5.1427 5.80469 6.7627V18.7627C5.80469 20.3827 6.80469 22.0127 9.05469 22.0127H15.0547C17.3047 22.0127 18.3047 20.3827 18.3047 18.7627V6.7627C18.3047 5.1427 17.3047 3.5127 15.0547 3.5127H9.05469Z" fill="white"/>
<path d="M19.0547 17.5227H5.05469C4.64469 17.5227 4.30469 17.1827 4.30469 16.7727C4.30469 16.3627 4.64469 16.0227 5.05469 16.0227H19.0547C19.4647 16.0227 19.8047 16.3627 19.8047 16.7727C19.8047 17.1827 19.4647 17.5227 19.0547 17.5227Z" fill="white"/>
<path d="M2.05469 21.5127C1.64469 21.5127 1.30469 21.1727 1.30469 20.7627V4.7627C1.30469 4.3527 1.64469 4.0127 2.05469 4.0127C2.46469 4.0127 2.80469 4.3527 2.80469 4.7627V20.7627C2.80469 21.1727 2.46469 21.5127 2.05469 21.5127Z" fill="white"/>
<path d="M22.0547 21.5127C21.6447 21.5127 21.3047 21.1727 21.3047 20.7627V4.7627C21.3047 4.3527 21.6447 4.0127 22.0547 4.0127C22.4647 4.0127 22.8047 4.3527 22.8047 4.7627V20.7627C22.8047 21.1727 22.4647 21.5127 22.0547 21.5127Z" fill="white"/>
</svg>
