<svg width="25" height="25" viewBox="0 0 25 25" fill="none" xmlns="http://www.w3.org/2000/svg">
<path d="M15.0547 23.5127H9.05469C3.62469 23.5127 1.30469 21.1927 1.30469 15.7627V9.7627C1.30469 4.3327 3.62469 2.0127 9.05469 2.0127H15.0547C20.4847 2.0127 22.8047 4.3327 22.8047 9.7627V15.7627C22.8047 21.1927 20.4847 23.5127 15.0547 23.5127ZM9.05469 3.5127C4.44469 3.5127 2.80469 5.1527 2.80469 9.7627V15.7627C2.80469 20.3727 4.44469 22.0127 9.05469 22.0127H15.0547C19.6647 22.0127 21.3047 20.3727 21.3047 15.7627V9.7627C21.3047 5.1527 19.6647 3.5127 15.0547 3.5127H9.05469Z" fill="white"/>
<path d="M12.0547 23.5127C11.6447 23.5127 11.3047 23.1727 11.3047 22.7627V2.7627C11.3047 2.3527 11.6447 2.0127 12.0547 2.0127C12.4647 2.0127 12.8047 2.3527 12.8047 2.7627V22.7627C12.8047 23.1727 12.4647 23.5127 12.0547 23.5127Z" fill="white"/>
<path d="M22.0547 13.5127H2.05469C1.64469 13.5127 1.30469 13.1727 1.30469 12.7627C1.30469 12.3527 1.64469 12.0127 2.05469 12.0127H22.0547C22.4647 12.0127 22.8047 12.3527 22.8047 12.7627C22.8047 13.1727 22.4647 13.5127 22.0547 13.5127Z" fill="white"/>
</svg>
