<svg width="25" height="25" viewBox="0 0 25 25" fill="none" xmlns="http://www.w3.org/2000/svg">
<path d="M20.0541 12.5128H4.05406C3.82406 12.5128 3.61406 12.4128 3.47406 12.2328C3.33406 12.0628 3.27406 11.8228 3.32406 11.6028L4.45406 6.20277C4.82406 4.45277 5.57406 2.84277 8.54406 2.84277H15.5741C18.5441 2.84277 19.2941 4.46277 19.6641 6.20277L20.7941 11.6128C20.8441 11.8328 20.7841 12.0628 20.6441 12.2428C20.4941 12.4128 20.2841 12.5128 20.0541 12.5128ZM4.97406 11.0128H19.1241L18.1841 6.51277C17.9041 5.20277 17.5741 4.34277 15.5641 4.34277H8.54406C6.53406 4.34277 6.20406 5.20277 5.92406 6.51277L4.97406 11.0128Z" fill="white"/>
<path d="M20.0143 23.5127H18.1343C16.5143 23.5127 16.2043 22.5827 16.0043 21.9727L15.8043 21.3727C15.5443 20.6127 15.5143 20.5127 14.6143 20.5127H9.49428C8.59428 20.5127 8.53429 20.6827 8.30429 21.3727L8.10429 21.9727C7.89429 22.5927 7.59429 23.5127 5.97429 23.5127H4.09429C3.30428 23.5127 2.54429 23.1827 2.01429 22.6027C1.49429 22.0327 1.24429 21.2727 1.31429 20.5127L1.87429 14.4227C2.02429 12.7727 2.46428 11.0127 5.67428 11.0127H18.4343C21.6443 11.0127 22.0743 12.7727 22.2343 14.4227L22.7943 20.5127C22.8643 21.2727 22.6143 22.0327 22.0943 22.6027C21.5643 23.1827 20.8043 23.5127 20.0143 23.5127ZM9.49428 19.0127H14.6143C16.4343 19.0127 16.8643 19.8227 17.2243 20.8827L17.4343 21.5027C17.6043 22.0127 17.6043 22.0227 18.1443 22.0227H20.0243C20.3943 22.0227 20.7443 21.8727 20.9943 21.6027C21.2343 21.3427 21.3443 21.0127 21.3143 20.6627L20.7543 14.5727C20.6243 13.2227 20.4643 12.5227 18.4543 12.5227H5.67428C3.65428 12.5227 3.49428 13.2227 3.37428 14.5727L2.81429 20.6627C2.78429 21.0127 2.89428 21.3427 3.13428 21.6027C3.37428 21.8727 3.73429 22.0227 4.10429 22.0227H5.98428C6.52428 22.0227 6.52428 22.0127 6.69428 21.5127L6.89429 20.9027C7.14429 20.1027 7.51428 19.0127 9.49428 19.0127Z" fill="white"/>
<path d="M4.0542 9.5127H3.0542C2.6442 9.5127 2.3042 9.1727 2.3042 8.7627C2.3042 8.3527 2.6442 8.0127 3.0542 8.0127H4.0542C4.4642 8.0127 4.8042 8.3527 4.8042 8.7627C4.8042 9.1727 4.4642 9.5127 4.0542 9.5127Z" fill="white"/>
<path d="M21.0542 9.5127H20.0542C19.6442 9.5127 19.3042 9.1727 19.3042 8.7627C19.3042 8.3527 19.6442 8.0127 20.0542 8.0127H21.0542C21.4642 8.0127 21.8042 8.3527 21.8042 8.7627C21.8042 9.1727 21.4642 9.5127 21.0542 9.5127Z" fill="white"/>
<path d="M12.0542 6.5127C11.6442 6.5127 11.3042 6.1727 11.3042 5.7627V3.7627C11.3042 3.3527 11.6442 3.0127 12.0542 3.0127C12.4642 3.0127 12.8042 3.3527 12.8042 3.7627V5.7627C12.8042 6.1727 12.4642 6.5127 12.0542 6.5127Z" fill="white"/>
<path d="M13.5542 6.5127H10.5542C10.1442 6.5127 9.8042 6.1727 9.8042 5.7627C9.8042 5.3527 10.1442 5.0127 10.5542 5.0127H13.5542C13.9642 5.0127 14.3042 5.3527 14.3042 5.7627C14.3042 6.1727 13.9642 6.5127 13.5542 6.5127Z" fill="white"/>
<path d="M9.0542 16.5127H6.0542C5.6442 16.5127 5.3042 16.1727 5.3042 15.7627C5.3042 15.3527 5.6442 15.0127 6.0542 15.0127H9.0542C9.4642 15.0127 9.8042 15.3527 9.8042 15.7627C9.8042 16.1727 9.4642 16.5127 9.0542 16.5127Z" fill="white"/>
<path d="M18.0542 16.5127H15.0542C14.6442 16.5127 14.3042 16.1727 14.3042 15.7627C14.3042 15.3527 14.6442 15.0127 15.0542 15.0127H18.0542C18.4642 15.0127 18.8042 15.3527 18.8042 15.7627C18.8042 16.1727 18.4642 16.5127 18.0542 16.5127Z" fill="white"/>
</svg>
