<svg width="25" height="25" viewBox="0 0 25 25" fill="none" xmlns="http://www.w3.org/2000/svg">
<path d="M22.0547 23.5127H2.05469C1.64469 23.5127 1.30469 23.1727 1.30469 22.7627C1.30469 22.3527 1.64469 22.0127 2.05469 22.0127H22.0547C22.4647 22.0127 22.8047 22.3527 22.8047 22.7627C22.8047 23.1727 22.4647 23.5127 22.0547 23.5127Z" fill="white"/>
<path d="M3.75488 22.7627H2.25488L2.30489 10.7327C2.30489 9.88265 2.69488 9.09268 3.36488 8.57268L10.3649 3.12267C11.3549 2.35267 12.7449 2.35267 13.7449 3.12267L20.7449 8.56267C21.4049 9.08267 21.8049 9.89265 21.8049 10.7327V22.7627H20.3049V10.7427C20.3049 10.3627 20.1249 9.99267 19.8249 9.75267L12.8249 4.31267C12.3749 3.96267 11.7449 3.96267 11.2849 4.31267L4.28489 9.76268C3.98489 9.99268 3.80489 10.3627 3.80489 10.7427L3.75488 22.7627Z" fill="white"/>
<path d="M17.0547 23.5127H7.05469C6.64469 23.5127 6.30469 23.1727 6.30469 22.7627V13.2627C6.30469 12.0227 7.31469 11.0127 8.55469 11.0127H15.5547C16.7947 11.0127 17.8047 12.0227 17.8047 13.2627V22.7627C17.8047 23.1727 17.4647 23.5127 17.0547 23.5127ZM7.80469 22.0127H16.3047V13.2627C16.3047 12.8527 15.9647 12.5127 15.5547 12.5127H8.55469C8.14469 12.5127 7.80469 12.8527 7.80469 13.2627V22.0127Z" fill="white"/>
<path d="M10.0547 19.2627C9.64469 19.2627 9.30469 18.9227 9.30469 18.5127V17.0127C9.30469 16.6027 9.64469 16.2627 10.0547 16.2627C10.4647 16.2627 10.8047 16.6027 10.8047 17.0127V18.5127C10.8047 18.9227 10.4647 19.2627 10.0547 19.2627Z" fill="white"/>
<path d="M13.5547 9.0127H10.5547C10.1447 9.0127 9.80469 8.6727 9.80469 8.2627C9.80469 7.8527 10.1447 7.5127 10.5547 7.5127H13.5547C13.9647 7.5127 14.3047 7.8527 14.3047 8.2627C14.3047 8.6727 13.9647 9.0127 13.5547 9.0127Z" fill="white"/>
</svg>
