<svg width="40" height="41" viewBox="0 0 40 41" fill="none" xmlns="http://www.w3.org/2000/svg">
<path d="M7.69342 8.97848C7.4023 8.97848 7.15841 8.8807 6.96175 8.68514C6.76508 8.48848 6.66675 8.24514 6.66675 7.95514C6.66675 7.66403 6.76508 7.42014 6.96175 7.22348C7.15841 7.02681 7.4023 6.92848 7.69342 6.92848C7.98453 6.92848 8.22786 7.02681 8.42341 7.22348C8.61897 7.42014 8.7173 7.66403 8.71841 7.95514C8.71953 8.24625 8.62119 8.48959 8.42341 8.68514C8.22564 8.8807 7.98175 8.97903 7.69175 8.98014M13.8467 8.98014C13.5556 8.98014 13.3117 8.88181 13.1151 8.68514C12.9184 8.48848 12.8201 8.24514 12.8201 7.95514C12.8201 7.66514 12.9184 7.42125 13.1151 7.22348C13.3117 7.0257 13.5556 6.92736 13.8467 6.92848C14.1379 6.92959 14.3812 7.02792 14.5767 7.22348C14.7723 7.41903 14.8706 7.66292 14.8717 7.95514C14.8729 8.24737 14.7745 8.4907 14.5767 8.68514C14.379 8.87959 14.1356 8.97792 13.8467 8.98014ZM20.0001 8.98014C19.7101 8.98014 19.4667 8.88181 19.2701 8.68514C19.0734 8.48848 18.9751 8.24514 18.9751 7.95514C18.9751 7.66514 19.0734 7.42125 19.2701 7.22348C19.4667 7.0257 19.7101 6.92736 20.0001 6.92848C20.2901 6.92959 20.534 7.02792 20.7317 7.22348C20.9295 7.41903 21.0273 7.66292 21.0251 7.95514C21.0229 8.24737 20.9245 8.4907 20.7301 8.68514C20.5356 8.87959 20.2923 8.97903 20.0001 8.98014ZM7.69342 15.1335C7.4023 15.1335 7.15841 15.0351 6.96175 14.8385C6.76508 14.6418 6.66675 14.3985 6.66675 14.1085C6.66675 13.8185 6.76508 13.5746 6.96175 13.3768C7.15841 13.179 7.4023 13.0807 7.69342 13.0818C7.98453 13.0829 8.22786 13.1813 8.42341 13.3768C8.61897 13.5724 8.7173 13.8163 8.71841 14.1085C8.71953 14.4007 8.62119 14.644 8.42341 14.8385C8.22564 15.0329 7.98175 15.1313 7.69175 15.1335M7.69175 21.2885C7.40175 21.2885 7.15841 21.1901 6.96175 20.9935C6.76508 20.7946 6.66675 20.5507 6.66675 20.2618C6.66675 19.9729 6.76508 19.7296 6.96175 19.5318C7.15841 19.334 7.4023 19.2357 7.69342 19.2368C7.98453 19.2379 8.22786 19.3363 8.42341 19.5318C8.61897 19.7274 8.7173 19.9707 8.71841 20.2618C8.71953 20.5529 8.62119 20.7968 8.42341 20.9935C8.22564 21.1901 7.98175 21.2879 7.69175 21.2868M32.3084 21.2868C32.0173 21.2868 31.7734 21.1885 31.5767 20.9918C31.3801 20.7951 31.2823 20.5518 31.2834 20.2618C31.2845 19.9718 31.3829 19.7285 31.5784 19.5318C31.774 19.3351 32.0173 19.2368 32.3084 19.2368C32.5995 19.2368 32.8434 19.3351 33.0401 19.5318C33.2367 19.7285 33.3345 19.9718 33.3334 20.2618C33.3323 20.5518 33.234 20.7957 33.0384 20.9935C32.8429 21.1913 32.5995 21.289 32.3084 21.2868ZM32.3084 27.4418C32.0173 27.4418 31.7734 27.3435 31.5767 27.1468C31.3801 26.9501 31.2817 26.7063 31.2817 26.4151C31.2817 26.124 31.3801 25.8807 31.5767 25.6851C31.7734 25.4896 32.0168 25.3913 32.3068 25.3901C32.5979 25.3901 32.8417 25.4885 33.0384 25.6851C33.2351 25.8818 33.3334 26.1251 33.3334 26.4151C33.3334 26.7051 33.2351 26.949 33.0384 27.1468C32.8417 27.3446 32.5984 27.4429 32.3084 27.4418ZM20.0001 33.5951C19.7101 33.5951 19.4667 33.4968 19.2701 33.3001C19.0734 33.1035 18.9751 32.8601 18.9751 32.5701C18.9751 32.2801 19.0734 32.0363 19.2701 31.8385C19.4667 31.6407 19.7101 31.5424 20.0001 31.5435C20.2901 31.5446 20.534 31.6429 20.7317 31.8385C20.9295 32.034 21.0273 32.2774 21.0251 32.5685C21.0251 32.8596 20.9267 33.1035 20.7301 33.3001C20.5334 33.4968 20.2901 33.5951 20.0001 33.5951ZM26.1534 33.5951C25.8634 33.5951 25.6201 33.4968 25.4234 33.3001C25.2267 33.1035 25.1284 32.8601 25.1284 32.5701C25.1284 32.2801 25.2267 32.0363 25.4234 31.8385C25.6201 31.6407 25.8634 31.5424 26.1534 31.5435C26.4434 31.5446 26.6873 31.6429 26.8851 31.8385C27.0829 32.034 27.1812 32.2774 27.1801 32.5685C27.179 32.8596 27.0806 33.1035 26.8851 33.3001C26.6895 33.4968 26.4456 33.5951 26.1534 33.5951ZM32.3068 33.5951C32.0168 33.5951 31.7734 33.4968 31.5767 33.3001C31.3801 33.1035 31.2817 32.8601 31.2817 32.5701C31.2817 32.2801 31.3801 32.0363 31.5767 31.8385C31.7734 31.6407 32.0168 31.5424 32.3068 31.5435C32.5968 31.5446 32.8406 31.6429 33.0384 31.8385C33.2362 32.034 33.3345 32.2774 33.3334 32.5685C33.3334 32.8596 33.2351 33.1035 33.0384 33.3001C32.8417 33.4968 32.5968 33.5951 32.3068 33.5951ZM31.6667 14.3001V9.62181C31.6667 9.32181 31.5706 9.0757 31.3784 8.88348C31.1862 8.69125 30.9406 8.59514 30.6417 8.59514H25.9617C25.7262 8.59514 25.5284 8.51514 25.3684 8.35514C25.2084 8.19514 25.1284 7.99681 25.1284 7.76014C25.1284 7.52348 25.2084 7.3257 25.3684 7.16681C25.5284 7.00792 25.7262 6.92848 25.9617 6.92848H30.6417C31.3817 6.92848 32.0151 7.19236 32.5417 7.72014C33.0684 8.24792 33.3323 8.88125 33.3334 9.62014V14.3001C33.3334 14.5368 33.2534 14.7346 33.0934 14.8935C32.9334 15.0524 32.7351 15.1324 32.4984 15.1335C32.2618 15.1346 32.064 15.0546 31.9051 14.8935C31.7462 14.7324 31.6667 14.5346 31.6667 14.3001ZM6.66675 30.9035V26.2235C6.66675 25.9868 6.74675 25.789 6.90675 25.6301C7.06675 25.4713 7.26508 25.3913 7.50175 25.3901C7.73841 25.389 7.93619 25.469 8.09508 25.6301C8.25397 25.7913 8.33341 25.989 8.33341 26.2235V30.9018C8.33341 31.2018 8.42953 31.4479 8.62175 31.6401C8.81397 31.8324 9.06008 31.9285 9.36008 31.9285H14.0384C14.2751 31.9285 14.4729 32.0085 14.6317 32.1685C14.7906 32.3285 14.8706 32.5268 14.8717 32.7635C14.8729 33.0001 14.7929 33.1979 14.6317 33.3568C14.4706 33.5157 14.2729 33.5951 14.0384 33.5951H9.36008C8.61897 33.5951 7.98508 33.3313 7.45841 32.8035C6.93175 32.2757 6.66786 31.6424 6.66675 30.9035Z" fill="white"/>
</svg>
