<svg width="25" height="25" viewBox="0 0 25 25" fill="none" xmlns="http://www.w3.org/2000/svg">
<path d="M12.0547 20.0127C8.05469 20.0127 4.80469 16.7627 4.80469 12.7627C4.80469 8.7627 8.05469 5.5127 12.0547 5.5127C16.0547 5.5127 19.3047 8.7627 19.3047 12.7627C19.3047 16.7627 16.0547 20.0127 12.0547 20.0127ZM12.0547 7.0127C8.88469 7.0127 6.30469 9.5927 6.30469 12.7627C6.30469 15.9327 8.88469 18.5127 12.0547 18.5127C15.2247 18.5127 17.8047 15.9327 17.8047 12.7627C17.8047 9.5927 15.2247 7.0127 12.0547 7.0127Z" fill="white"/>
<path d="M12.0547 23.7227C11.5047 23.7227 11.0547 23.3127 11.0547 22.7627V22.6827C11.0547 22.1327 11.5047 21.6827 12.0547 21.6827C12.6047 21.6827 13.0547 22.1327 13.0547 22.6827C13.0547 23.2327 12.6047 23.7227 12.0547 23.7227ZM19.1947 20.9027C18.9347 20.9027 18.6847 20.8027 18.4847 20.6127L18.3547 20.4827C17.9647 20.0927 17.9647 19.4627 18.3547 19.0727C18.7447 18.6827 19.3747 18.6827 19.7647 19.0727L19.8947 19.2027C20.2847 19.5927 20.2847 20.2227 19.8947 20.6127C19.7047 20.8027 19.4547 20.9027 19.1947 20.9027ZM4.91469 20.9027C4.65469 20.9027 4.40469 20.8027 4.20469 20.6127C3.81469 20.2227 3.81469 19.5927 4.20469 19.2027L4.33469 19.0727C4.72469 18.6827 5.35469 18.6827 5.74469 19.0727C6.13469 19.4627 6.13469 20.0927 5.74469 20.4827L5.61469 20.6127C5.42469 20.8027 5.16469 20.9027 4.91469 20.9027ZM22.0547 13.7627H21.9747C21.4247 13.7627 20.9747 13.3127 20.9747 12.7627C20.9747 12.2127 21.4247 11.7627 21.9747 11.7627C22.5247 11.7627 23.0147 12.2127 23.0147 12.7627C23.0147 13.3127 22.6047 13.7627 22.0547 13.7627ZM2.13469 13.7627H2.05469C1.50469 13.7627 1.05469 13.3127 1.05469 12.7627C1.05469 12.2127 1.50469 11.7627 2.05469 11.7627C2.60469 11.7627 3.09469 12.2127 3.09469 12.7627C3.09469 13.3127 2.68469 13.7627 2.13469 13.7627ZM19.0647 6.7527C18.8047 6.7527 18.5547 6.6527 18.3547 6.4627C17.9647 6.0727 17.9647 5.4427 18.3547 5.0527L18.4847 4.9227C18.8747 4.5327 19.5047 4.5327 19.8947 4.9227C20.2847 5.3127 20.2847 5.9427 19.8947 6.3327L19.7647 6.4627C19.5747 6.6527 19.3247 6.7527 19.0647 6.7527ZM5.04469 6.7527C4.78469 6.7527 4.53469 6.6527 4.33469 6.4627L4.20469 6.3227C3.81469 5.9327 3.81469 5.3027 4.20469 4.9127C4.59469 4.5227 5.22469 4.5227 5.61469 4.9127L5.74469 5.0427C6.13469 5.4327 6.13469 6.0627 5.74469 6.4527C5.55469 6.6527 5.29469 6.7527 5.04469 6.7527ZM12.0547 3.8027C11.5047 3.8027 11.0547 3.3927 11.0547 2.8427V2.7627C11.0547 2.2127 11.5047 1.7627 12.0547 1.7627C12.6047 1.7627 13.0547 2.2127 13.0547 2.7627C13.0547 3.3127 12.6047 3.8027 12.0547 3.8027Z" fill="white"/>
</svg>
