<svg width="25" height="25" viewBox="0 0 25 25" fill="none" xmlns="http://www.w3.org/2000/svg">
<path d="M19.9547 23.5127H4.15469C2.23469 23.5127 1.30469 22.5327 1.30469 20.5327V16.4927C1.30469 14.4827 2.23469 13.5127 4.15469 13.5127H19.9547C21.8747 13.5127 22.8047 14.4927 22.8047 16.4927V20.5327C22.8047 22.5327 21.8747 23.5127 19.9547 23.5127ZM4.15469 15.0127C3.14469 15.0127 2.80469 15.2227 2.80469 16.4927V20.5327C2.80469 21.8027 3.14469 22.0127 4.15469 22.0127H19.9547C20.9647 22.0127 21.3047 21.8027 21.3047 20.5327V16.4927C21.3047 15.2227 20.9647 15.0127 19.9547 15.0127H4.15469Z" fill="white"/>
<path d="M12.9547 12.0127H4.15469C2.23469 12.0127 1.30469 11.0327 1.30469 9.0327V4.9927C1.30469 2.9827 2.23469 2.0127 4.15469 2.0127H12.9547C14.8747 2.0127 15.8047 2.9927 15.8047 4.9927V9.0327C15.8047 11.0327 14.8747 12.0127 12.9547 12.0127ZM4.15469 3.5127C3.14469 3.5127 2.80469 3.7227 2.80469 4.9927V9.0327C2.80469 10.3027 3.14469 10.5127 4.15469 10.5127H12.9547C13.9647 10.5127 14.3047 10.3027 14.3047 9.0327V4.9927C14.3047 3.7227 13.9647 3.5127 12.9547 3.5127H4.15469V3.5127Z" fill="white"/>
</svg>
